<?xml version="1.0" encoding="utf-8"?>
<!-- Generator: Adobe Illustrator 16.0.0, SVG Export Plug-In . SVG Version: 6.00 Build 0)  -->
<!DOCTYPE svg PUBLIC "-//W3C//DTD SVG 1.1//EN" "http://www.w3.org/Graphics/SVG/1.1/DTD/svg11.dtd">
<svg xmlns="http://www.w3.org/2000/svg" xmlns:xlink="http://www.w3.org/1999/xlink" version="1.1" id="Layer_1" x="0px" y="0px" width="24px" height="24px" viewBox="0 0 512 512" enable-background="new 0 0 512 512" xml:space="preserve">
<g>
	<g>
		<g>
			<g>
				<g>
					<g>
						<g>
							<path fill="#48A1AF" d="M7.9,256C7.9,119,119,7.9,256,7.9C393,7.9,504.1,119,504.1,256c0,137-111.1,248.1-248.1,248.1         C119,504.1,7.9,393,7.9,256z"/>
						</g>
					</g>
				</g>
			</g>
		</g>
	</g>
	<g>
		<g>
			<g>
				<g>
					<g>
						<g>
							<g>
								<g>
									<path fill="#FFFFFF" d="M83.9,256c0-95,77-172.1,172.1-172.1c95,0,172.1,77,172.1,172.1c0,95-77,172.1-172.1,172.1           C161,428.1,83.9,351,83.9,256z"/>
								</g>
							</g>
						</g>
					</g>
				</g>
			</g>
		</g>
		<g>
			<g>
				<g>
					<g>
						<g>
							<g>
								<g>
									<path fill="#48A1AF" d="M102.9,256c0-84.6,68.6-153.1,153.1-153.1c84.6,0,153.1,68.5,153.1,153.1           c0,84.6-68.6,153.1-153.1,153.1C171.4,409.1,102.9,340.6,102.9,256z"/>
								</g>
							</g>
						</g>
					</g>
				</g>
			</g>
		</g>
		<g>
			<g>
				<g>
					<g>
						<g>
							<g>
								<g>
									<g>
										<path fill="#FFFFFF" d="M256,279.6c-13,0-23.6-10.6-23.6-23.6s10.6-23.6,23.6-23.6c13,0,23.6,10.6,23.6,23.6            S269,279.6,256,279.6z"/>
									</g>
								</g>
							</g>
						</g>
					</g>
				</g>
			</g>
			<g>
				<path fill="#FFFFFF" d="M256,263.7h-88.2c-4.2,0-7.7-3.4-7.7-7.7s3.4-7.7,7.7-7.7H256c4.2,0,7.7,3.4,7.7,7.7      S260.2,263.7,256,263.7z"/>
			</g>
			<g>
				<path fill="#FFFFFF" d="M256,263.7c-2,0-3.9-0.8-5.4-2.3c-3-3-3-7.9,0-10.9l62.4-62.4c3-3,7.9-3,10.9,0c3,3,3,7.9,0,10.9      l-62.4,62.4C259.9,262.9,258,263.7,256,263.7z"/>
			</g>
		</g>
		<g>
			<g>
				<g>
					<circle fill="#FFFFFF" cx="256" cy="128" r="10"/>
				</g>
				<g>
					<circle fill="#FFFFFF" cx="256" cy="384" r="10"/>
				</g>
			</g>
			<g>
				<g>
					<circle fill="#FFFFFF" cx="384" cy="256" r="10"/>
				</g>
				<g>
					<circle fill="#FFFFFF" cx="128" cy="256" r="10"/>
				</g>
			</g>
		</g>
		<g>
			<g>
				<g>
					<circle fill="#FFFFFF" cx="346.5" cy="165.5" r="10"/>
				</g>
				<g>
					<circle fill="#FFFFFF" cx="165.5" cy="346.5" r="10"/>
				</g>
			</g>
			<g>
				<g>
					<circle fill="#FFFFFF" cx="346.5" cy="346.5" r="10"/>
				</g>
				<g>
					<circle fill="#FFFFFF" cx="165.5" cy="165.5" r="10"/>
				</g>
			</g>
		</g>
	</g>
</g>
</svg>
